<svg xmlns="http://www.w3.org/2000/svg" width="24.289258575439455" height="76.3998046875" fill="none" viewBox="27.22978515625 1.2094726562499998 24.289258575439455 76.3998046875">
<!-- SVG created with Arrow, by QuiverAI (https://quiver.ai) -->
  <path d="m30.61 19.64c-1.07 1.44-1.56 3.35-1.56 5.5l0.06 45.55c0 2.45 1.77 4.41 3.99 4.7 4.32 0.56 8.98 0.5 12.69 0 2.33-0.3 3.91-2.26 3.91-4.6v-45.85c0-2.14-0.62-4.09-1.66-5.4l-17.43 0.1z" fill="#879CE2" stroke="#542C1D" stroke-width=".9455"/><path d="m46.77 8.66c-0.2-1.92-0.51-4.07-0.7-4.68-0.17-0.6-0.7-0.93-2.25-0.95-2.65-0.02-6.93 1.77-9.18 3.39-1.19 0.25-2.36 0.81-2.94 1.96-1.08 2.16-1.53 5.23-1.35 7.36l17.96-0.04c0.07-1.15-0.02-2.4-0.18-3.29 0.39-0.14 0.46-0.48 0.43-0.94-0.05-0.73-0.09-1.61-0.26-2.03-0.19-0.54-0.82-0.7-1.53-0.78z" fill="#879CE2" stroke="#542C1D" stroke-width=".8485"/><path d="m34.64 6.35c2.56-0.25 4.88 0.28 6.69 1.06 1.92 0.76 3.83 1.16 5.44 1.25" stroke="#542C1D" stroke-linecap="round" stroke-width=".6364"/><path d="m41.9 7.81c1.96 0.47 4.08 0.79 5.28 0.93 0.65 0.08 0.98 0.35 1.06 0.88 0.1 0.73 0.23 1.63 0.23 2.14 0 0.45-0.28 0.62-0.78 0.53-1.61-0.4-3.61-2.91-5.79-4.48z" fill="#F5E9D7" stroke="#542C1D" stroke-width=".5455"/><path d="m30.69 15.66c-0.48 0.02-0.73 0.43-0.81 1.27-0.07 0.76-0.07 1.46 0.02 1.98 0.11 0.59 0.36 0.79 0.74 0.78 5.68-0.1 12.83-0.11 17.4-0.07 0.46 0 0.65-0.31 0.71-0.87 0.1-0.85 0.07-1.77-0.05-2.44-0.09-0.52-0.38-0.71-0.85-0.72-5.72-0.15-12.34-0.1-17.16 0.07z" fill="#879CE2" stroke="#542C1D" stroke-width=".7879"/><path d="m34.71 6.37c3.31-0.41 6.08 0.87 8.07 2.37 2.02 1.62 3.79 3.39 5.31 3.67" stroke="#542C1D" stroke-linecap="round" stroke-width=".6364"/><path d="m40.77 27.46c0.09-1.29-0.83-2.15-1.93-2.15-1.19 0-2.16 1-1.95 2.39-1.4-0.57-2.82 0.24-2.82 1.76 0 1.11 0.8 1.73 1.68 1.93-0.35 0.39-0.5 0.84-0.5 1.35 0 1.19 0.98 2.02 1.94 2.02 0.82 0 1.5-0.55 1.84-1.14 0.42 0.6 1.09 0.99 1.8 0.99 1.1 0 1.94-0.92 1.94-2.02 0-0.65-0.26-1.21-0.62-1.54 1.01-0.28 1.51-1.03 1.51-1.92 0-1.5-1.47-2.26-2.89-1.67z" fill="#F5E9D7" stroke="#542C1D" stroke-width=".6667"/><circle cx="38.89" cy="30.26" r="1.532" fill="#CE642F"/><path d="m43.29 37.94c-0.54-0.63-1.27-0.98-1.99-0.98-1.55 0-2.8 1.38-2.8 3.28 0 2.33 1.89 4.52 3.88 5.95 0.53 0.38 0.94 0.38 1.38 0.03 2.06-1.85 4.07-4.53 4.07-6.83 0-1.53-1.15-2.46-2.45-2.46-0.78 0-1.55 0.42-2.09 1.01z" fill="#F5E9D7" stroke="#502C20" stroke-width=".6667"/><path d="m43.28 39.53c-0.5-0.88-1.26-1.36-1.98-1.36-0.99 0-1.65 0.85-1.65 2.07 0 2.01 2 4.12 3.34 5.03 0.08 0.06 0.15 0.05 0.23-0.01 1.74-1.65 3.5-4.05 3.5-5.75 0-0.89-0.59-1.38-1.39-1.38-0.78 0-1.54 0.64-2.05 1.4z" fill="#CE642F"/><path d="m40.94 50.88c-0.79-0.07-1.64-0.07-2.24-0.02-0.83 0.08-1.32 0.58-1.32 1.26 0 0.83 1.1 1.85 1.78 2.47-0.35 0.93-0.67 1.92-0.67 2.58 0 0.75 0.53 1.2 1.13 1.2 0.76 0 1.89-0.75 2.65-1.15 0.87 0.74 1.84 1.58 2.52 1.58 0.73 0 1.14-0.55 1.14-1.25 0-0.76-0.23-1.81-0.35-2.4 1.13-0.8 2.31-1.5 2.31-2.36 0-1.29-1.7-1.41-2.95-1.61-0.37-1.57-0.5-2.9-1.71-2.9-1.05 0-1.56 1.46-2.29 2.6z" fill="#F5E9D7" stroke="#502C20" stroke-width=".6364"/><path d="m41.53 51.78c-1.01-0.04-2.09-0.06-2.62 0.02-0.39 0.05-0.46 0.33-0.27 0.59 0.45 0.62 1.14 1.36 1.57 1.91 0.03 0.06 0.04 0.12 0.02 0.18-0.35 0.95-0.73 2.01-0.77 2.49-0.03 0.36 0.23 0.52 0.55 0.41 0.73-0.31 1.65-0.87 2.24-1.13 0.09-0.03 0.17-0.01 0.24 0.04 0.7 0.53 1.49 1.21 1.98 1.44 0.34 0.15 0.6-0.04 0.57-0.44-0.07-0.86-0.33-1.88-0.42-2.37-0.02-0.14 0.03-0.24 0.13-0.31 0.76-0.52 1.66-1.06 2.01-1.39 0.27-0.28 0.14-0.62-0.25-0.71-0.75-0.18-1.65-0.31-2.19-0.41-0.11-0.02-0.18-0.09-0.2-0.2-0.18-0.99-0.38-2-0.61-2.42-0.18-0.31-0.54-0.27-0.74 0.02-0.46 0.76-0.86 1.65-1.24 2.28z" fill="#889771"/>
  
  
  
  
  
  
  
  
  
  
  
  
  
  
  
  
  
  
  
  
  
  
</svg>