<svg xmlns="http://www.w3.org/2000/svg" width="280" height="170" viewBox="0 0 280 170" fill="none" aria-hidden="true">
  <rect x="8" y="120" width="264" height="16" rx="4" fill="#b99362" stroke="#8a6c47" stroke-width="2"/>
  <path d="M40 136 L56 156 L24 156 Z" fill="#a9865b" stroke="#8a6c47" stroke-width="2"/>
  <path d="M240 136 L256 156 L224 156 Z" fill="#a9865b" stroke="#8a6c47" stroke-width="2"/>

  <g>
    <rect x="26" y="66" width="42" height="54" rx="5" fill="#d5e4dd" opacity="0.85" stroke="#8a6c47" stroke-width="2"/>
    <rect x="26" y="58" width="42" height="12" rx="4" fill="#b99362" stroke="#8a6c47" stroke-width="2"/>
    <g stroke="#7e8f6b" stroke-width="2.5" stroke-linecap="round">
      <path d="M47 66 C 44 50, 38 44, 32 40"/>
      <path d="M47 66 C 50 48, 58 42, 64 40"/>
    </g>
    <circle cx="32" cy="38" r="6" fill="#e8b4af"/>
    <circle cx="64" cy="38" r="6" fill="#d9a94e"/>
  </g>

  <g>
    <rect x="86" y="86" width="18" height="34" rx="2" fill="#d98c8c" stroke="#8a6c47" stroke-width="2"/>
    <rect x="106" y="82" width="18" height="38" rx="2" fill="#9caf88" stroke="#8a6c47" stroke-width="2"/>
    <rect x="126" y="90" width="18" height="30" rx="2" fill="#d9a94e" stroke="#8a6c47" stroke-width="2"/>
    <rect x="96" y="78" width="34" height="10" rx="3" transform="rotate(-14 113 83)" fill="#f0e2c8" stroke="#8a6c47" stroke-width="2"/>
  </g>

  <g>
    <path d="M166 96 L204 96 L198 120 L172 120 Z" fill="#c97b5a" stroke="#8a6c47" stroke-width="2"/>
    <ellipse cx="185" cy="96" rx="19" ry="5" fill="#8a5a3e"/>
    <g fill="#7e8f6b">
      <ellipse cx="176" cy="88" rx="9" ry="6"/>
      <ellipse cx="194" cy="88" rx="9" ry="6"/>
      <ellipse cx="185" cy="82" rx="8" ry="7"/>
    </g>
  </g>

  <g transform="rotate(4 236 96)">
    <rect x="216" y="70" width="46" height="50" fill="#fbf6ec" stroke="#8a6c47" stroke-width="2"/>
    <rect x="222" y="76" width="34" height="30" fill="#f2cfc9"/>
    <path d="M239 100 C 231 92, 230 85, 236 83 C 239 82, 239 85, 239 87 C 239 85, 239 82, 242 83 C 248 85, 247 92, 239 100 Z" fill="#d98c8c"/>
  </g>
</svg>
