<svg xmlns="http://www.w3.org/2000/svg" width="260" height="340" viewBox="0 0 260 340" fill="none" aria-hidden="true">
  <defs>
    <linearGradient id="sky" x1="0" y1="0" x2="0" y2="1">
      <stop offset="0" stop-color="#bfe0e6"/>
      <stop offset="0.55" stop-color="#dcece4"/>
      <stop offset="1" stop-color="#f6e3c4"/>
    </linearGradient>
  </defs>
  <rect x="8" y="8" width="244" height="304" rx="8" fill="#c9a87c" stroke="#8a6c47" stroke-width="3"/>
  <rect x="24" y="24" width="212" height="256" fill="url(#sky)"/>
  <circle cx="182" cy="82" r="24" fill="#f6d27a"/>
  <g fill="#ffffff" opacity="0.85">
    <ellipse cx="78" cy="96" rx="26" ry="14"/>
    <ellipse cx="100" cy="92" rx="18" ry="11"/>
    <ellipse cx="62" cy="150" rx="20" ry="11"/>
  </g>
  <path d="M70 210 C 82 196, 96 196, 104 208 M104 208 C 110 202, 118 202, 122 208" stroke="#7e8f6b" stroke-width="3" fill="none" stroke-linecap="round"/>
  <path d="M150 176 C 142 166, 132 166, 128 174 C 124 182, 132 188, 139 184 C 146 188, 154 182, 150 176 Z" fill="#d98c8c" opacity="0.9"/>
  <g stroke="#8a6c47" stroke-width="6">
    <line x1="130" y1="24" x2="130" y2="280"/>
    <line x1="24" y1="150" x2="236" y2="150"/>
  </g>
  <rect x="0" y="300" width="260" height="22" rx="5" fill="#d3b184" stroke="#8a6c47" stroke-width="3"/>
  <g fill="#7e8f6b">
    <ellipse cx="228" cy="294" rx="14" ry="8"/>
    <rect x="224" y="292" width="8" height="10" fill="#c97b5a"/>
  </g>
</svg>
